<?xml version="1.0" encoding="UTF-8" standalone="no"?>
<!-- Created with Inkscape (http://www.inkscape.org/) -->

<svg
   xmlns:dc="http://purl.org/dc/elements/1.1/"
   xmlns:cc="http://creativecommons.org/ns#"
   xmlns:rdf="http://www.w3.org/1999/02/22-rdf-syntax-ns#"
   xmlns:svg="http://www.w3.org/2000/svg"
   xmlns="http://www.w3.org/2000/svg"
   xmlns:sodipodi="http://sodipodi.sourceforge.net/DTD/sodipodi-0.dtd"
   xmlns:inkscape="http://www.inkscape.org/namespaces/inkscape"
   width="922.01996mm"
   height="306.49332mm"
   viewBox="0 0 3266.9998 1086"
   id="svg15414"
   version="1.1"
   inkscape:version="0.91 r13725"
   sodipodi:docname="backgrounds_stacks.svg"
   inkscape:export-filename="/home/tobias/Projekte/AndroidStudio/Solitaire/Pictures/all_cards/backgrounds_stacks.svg.png"
   inkscape:export-xdpi="90"
   inkscape:export-ydpi="90">
  <defs
     id="defs15416" />
  <sodipodi:namedview
     id="base"
     pagecolor="#ffffff"
     bordercolor="#666666"
     borderopacity="1.0"
     inkscape:pageopacity="0.0"
     inkscape:pageshadow="2"
     inkscape:zoom="0.35355339"
     inkscape:cx="1457.1793"
     inkscape:cy="364.89847"
     inkscape:document-units="px"
     inkscape:current-layer="g15421"
     showgrid="true"
     inkscape:window-width="1920"
     inkscape:window-height="1021"
     inkscape:window-x="0"
     inkscape:window-y="0"
     inkscape:window-maximized="1"
     fit-margin-top="0"
     fit-margin-left="0"
     fit-margin-right="0"
     fit-margin-bottom="0">
    <inkscape:grid
       type="xygrid"
       id="grid4250"
       originx="1"
       originy="2.9998963" />
  </sodipodi:namedview>
  <metadata
     id="metadata15419">
    <rdf:RDF>
      <cc:Work
         rdf:about="">
        <dc:format>image/svg+xml</dc:format>
        <dc:type
           rdf:resource="http://purl.org/dc/dcmitype/StillImage" />
        <dc:title />
      </cc:Work>
    </rdf:RDF>
  </metadata>
  <g
     inkscape:label="Ebene 1"
     inkscape:groupmode="layer"
     id="layer1"
     transform="translate(0.99999652,30.637812)">
    <g
       id="g23566"
       transform="translate(110.81731,-993.68841)"
       style="stroke-width:2;stroke-miterlimit:4;stroke-dasharray:none">
      <g
         id="g15421"
         style="stroke-width:2;stroke-miterlimit:4;stroke-dasharray:none">
        <rect
           style="fill:#000000;fill-opacity:0.17417417;stroke:#000000;stroke-width:4;stroke-miterlimit:4;stroke-dasharray:none"
           ry="29.944"
           id="rect56"
           rx="29.944"
           height="539"
           width="359.00006"
           y="1508.0505"
           x="-109.81731" />
        <rect
           style="fill:#000000;fill-opacity:0.17417417;stroke:#000000;stroke-width:4;stroke-miterlimit:4;stroke-dasharray:none"
           ry="29.944"
           id="rect56-6"
           rx="29.944"
           height="539"
           width="359.00006"
           y="1508.0505"
           x="253.18277" />
        <rect
           style="fill:#000000;fill-opacity:0.17417417;stroke:#000000;stroke-width:4;stroke-miterlimit:4;stroke-dasharray:none"
           ry="29.944"
           id="rect56-7"
           rx="29.944"
           height="539"
           width="359.00006"
           y="1508.0505"
           x="616.1828" />
        <rect
           style="fill:#000000;fill-opacity:0.17417417;stroke:#000000;stroke-width:4;stroke-miterlimit:4;stroke-dasharray:none"
           ry="29.944"
           id="rect56-6-5"
           rx="29.944"
           height="539"
           width="359.00006"
           y="1508.0505"
           x="979.1828" />
        <rect
           style="fill:#000000;fill-opacity:0.17417417;stroke:#000000;stroke-width:4;stroke-miterlimit:4;stroke-dasharray:none"
           ry="29.944"
           id="rect56-3"
           rx="29.944"
           height="539"
           width="359.00006"
           y="1508.0505"
           x="1342.183" />
        <rect
           style="fill:#000000;fill-opacity:0.17417417;stroke:#000000;stroke-width:4;stroke-miterlimit:4;stroke-dasharray:none"
           ry="29.944"
           id="rect56-6-56"
           rx="29.944"
           height="539"
           width="359.00006"
           y="1508.0505"
           x="1705.183" />
        <rect
           style="fill:#000000;fill-opacity:0.17417417;stroke:#000000;stroke-width:4;stroke-miterlimit:4;stroke-dasharray:none"
           ry="29.944"
           id="rect56-1"
           rx="29.944"
           height="539"
           width="359"
           y="965.0506"
           x="-109.81731" />
        <rect
           style="fill:#000000;fill-opacity:0.17417417;stroke:#000000;stroke-width:4;stroke-miterlimit:4;stroke-dasharray:none"
           ry="29.944"
           id="rect56-6-2"
           rx="29.944"
           height="539"
           width="359"
           y="965.0506"
           x="253.18269" />
        <rect
           style="fill:#000000;fill-opacity:0.17417417;stroke:#000000;stroke-width:4;stroke-miterlimit:4;stroke-dasharray:none"
           ry="29.944"
           id="rect56-7-7"
           rx="29.944"
           height="539"
           width="359"
           y="965.0506"
           x="616.18268" />
        <rect
           style="fill:#000000;fill-opacity:0.17417417;stroke:#000000;stroke-width:4;stroke-miterlimit:4;stroke-dasharray:none"
           ry="29.944"
           id="rect56-6-5-0"
           rx="29.944"
           height="539"
           width="359"
           y="965.0506"
           x="979.18268" />
        <rect
           style="fill:#000000;fill-opacity:0.17417417;stroke:#000000;stroke-width:4;stroke-miterlimit:4;stroke-dasharray:none"
           ry="29.944"
           id="rect56-3-9"
           rx="29.944"
           height="539"
           width="359"
           y="965.0506"
           x="1342.1827" />
        <rect
           style="fill:#000000;fill-opacity:0.17417417;stroke:#000000;stroke-width:4;stroke-miterlimit:4;stroke-dasharray:none"
           ry="29.944"
           id="rect56-6-56-3"
           rx="29.944"
           height="539"
           width="359"
           y="965.0506"
           x="1705.1827" />
        <rect
           style="fill:#000000;fill-opacity:0.17417417;stroke:#000000;stroke-width:4;stroke-miterlimit:4;stroke-dasharray:none"
           ry="29.944"
           id="rect56-7-2-6"
           rx="29.944"
           height="539"
           width="359"
           y="965.0506"
           x="2068.1826" />
        <rect
           style="fill:#000000;fill-opacity:0.17417417;stroke:#000000;stroke-width:4;stroke-miterlimit:4;stroke-dasharray:none"
           ry="29.944"
           id="rect56-6-5-9-0"
           rx="29.944"
           height="539"
           width="359"
           y="965.0506"
           x="2431.1826" />
        <path
           id="path0"
           d="m 402.02193,1071.93 0,25.6694 -2.51951,0.8316 c -118.40404,22.4659 -178.31885,206.1439 -8.4921,275.5119 2.44763,0.6758 3.20658,2.3132 -17.84739,-18.7478 -20.52822,-20.5354 -28.30985,-26.6452 -27.50079,-27.6192 0.50955,-0.6153 11.79524,-12.8646 18.90485,-19.9311 14.18469,-14.0981 16.01796,-13.2794 12.75211,-15.966 -55.01312,-44.6321 -28.61397,-112.1665 20.47428,-125.7326 0.58142,-0.1254 1.29041,-0.5455 1.57514,-0.933 1.21493,-0.1797 0.43177,1.5948 1.63011,0.026 0.92816,-1.2286 1.04234,3.1115 1.01203,38.6799 -0.019,22.0351 0.0734,40.1713 0.20438,40.3023 0.27133,0.2714 97.63027,-97.0248 98.50628,-98.4428 0.51377,-0.8315 -96.91987,-99.3175 -98.25539,-99.3175 -0.24456,0 -0.444,11.551 -0.444,25.6688 m 86.29175,46.6286 c 19.32448,19.3542 26.48527,26.4003 25.89256,27.4328 -0.38761,0.6745 -10.94165,13.1074 -18.09566,20.2255 -13.9634,13.8936 -13.1915,13.2006 -13.1915,13.2006 75.51168,47.5104 27.07585,115.0397 -23.81167,129.0141 -0.46161,0 -0.70476,-13.9183 -0.70476,-40.3452 l 0,-40.3462 -49.33313,49.3296 c -27.13322,27.1312 -49.33313,49.7624 -49.33313,50.2923 0,0.5294 21.7242,22.6919 48.27599,49.2506 26.5518,26.5583 48.276,48.5637 48.276,48.9005 0,0.3377 0.4757,0.6131 1.05713,0.6131 0.92042,0 1.05714,-3.3222 1.05714,-25.6687 l 0,-25.6694 2.51951,-0.8317 c 222.85312,-118.6571 60.18528,-264.451 6.01387,-274.6162 l 19.72232,17.7094"
           inkscape:connector-curvature="0"
           style="display:block;fill:#000000;fill-opacity:0.39215686;fill-rule:evenodd;stroke:none;stroke-width:4;stroke-miterlimit:4;stroke-dasharray:none"
           sodipodi:nodetypes="ccccscccccccssscccsccscsssssscccc" />
        <flowRoot
           xml:space="preserve"
           id="flowRoot4252"
           style="font-style:normal;font-weight:normal;font-size:40px;line-height:125%;font-family:sans-serif;letter-spacing:0px;word-spacing:0px;fill:#000000;fill-opacity:1;stroke:none;stroke-width:1px;stroke-linecap:butt;stroke-linejoin:miter;stroke-opacity:1"
           transform="translate(-110.81731,964.05054)"><flowRegion
             id="flowRegion4254"><rect
               id="rect4256"
               width="210"
               height="210"
               x="830"
               y="202.00012" /></flowRegion><flowPara
             id="flowPara4258" /></flowRoot>        <flowRoot
           xml:space="preserve"
           id="flowRoot4260"
           style="font-style:normal;font-weight:normal;font-size:40px;line-height:125%;font-family:sans-serif;letter-spacing:0px;word-spacing:0px;fill:#000000;fill-opacity:0.39215686;stroke:none;stroke-width:0.44021291;stroke-linecap:butt;stroke-linejoin:miter;stroke-miterlimit:4;stroke-dasharray:none;stroke-opacity:1"
           transform="matrix(7.6088762,0,0,10.851103,-5548.0928,-913.45136)"><flowRegion
             id="flowRegion4262"><rect
               id="rect4264"
               width="200"
               height="230"
               x="820"
               y="172.00012"
               style="fill:#000000;fill-opacity:0.39215686;stroke-width:0.44021291;stroke-miterlimit:4;stroke-dasharray:none" /></flowRegion><flowPara
             id="flowPara4266">A</flowPara></flowRoot>        <rect
           style="fill:#000000;fill-opacity:0.17417417;stroke:#000000;stroke-width:4;stroke-miterlimit:4;stroke-dasharray:none"
           ry="29.944004"
           id="rect56-62"
           rx="29.944002"
           height="539.00006"
           width="359.00003"
           y="965.05066"
           x="2794.1826" />
        <flowRoot
           xml:space="preserve"
           id="flowRoot4294"
           style="font-style:normal;font-weight:normal;font-size:40px;line-height:125%;font-family:sans-serif;letter-spacing:0px;word-spacing:0px;fill:#000000;fill-opacity:0.39215686;stroke:none;stroke-width:0.37787411;stroke-linecap:butt;stroke-linejoin:miter;stroke-miterlimit:4;stroke-dasharray:none;stroke-opacity:1"
           transform="matrix(10.393663,0,0,10.780951,-11029.574,74.459535)"><flowRegion
             id="flowRegion4296"><rect
               id="rect4298"
               width="220"
               height="420"
               x="1160"
               y="82.000122"
               style="fill:#000000;fill-opacity:0.39215686;stroke-width:0.37787411;stroke-miterlimit:4;stroke-dasharray:none" /></flowRegion><flowPara
             id="flowPara4300">2</flowPara></flowRoot>        <flowRoot
           xml:space="preserve"
           id="flowRoot4302"
           style="font-style:normal;font-weight:normal;font-size:40px;line-height:125%;font-family:sans-serif;letter-spacing:0px;word-spacing:0px;fill:#000000;fill-opacity:0.39215686;stroke:none;stroke-width:0.38959429;stroke-linecap:butt;stroke-linejoin:miter;stroke-miterlimit:4;stroke-dasharray:none;stroke-opacity:1"
           transform="matrix(10.049652,0,0,10.489235,-13684.665,99.757382)"><flowRegion
             id="flowRegion4304"><rect
               id="rect4306"
               width="240"
               height="320"
               x="1500"
               y="82.000122"
               style="fill:#000000;fill-opacity:0.39215686;stroke-width:0.38959429;stroke-miterlimit:4;stroke-dasharray:none" /></flowRegion><flowPara
             id="flowPara4308">3</flowPara></flowRoot>        <flowRoot
           xml:space="preserve"
           id="flowRoot4310"
           style="font-style:normal;font-weight:normal;font-size:40px;line-height:125%;font-family:sans-serif;letter-spacing:0px;word-spacing:0px;fill:#000000;fill-opacity:0.39215686;stroke:none;stroke-width:0.39658943;stroke-linecap:butt;stroke-linejoin:miter;stroke-miterlimit:4;stroke-dasharray:none;stroke-opacity:1"
           transform="matrix(9.336135,0,0,10.896088,-15978.613,60.871555)"><flowRegion
             id="flowRegion4312"><rect
               id="rect4314"
               width="220"
               height="300"
               x="1900"
               y="82.000122"
               style="fill:#000000;fill-opacity:0.39215686;stroke-width:0.39658943;stroke-miterlimit:4;stroke-dasharray:none" /></flowRegion><flowPara
             id="flowPara4316">4</flowPara></flowRoot>        <flowRoot
           xml:space="preserve"
           id="flowRoot4318"
           style="font-style:normal;font-weight:normal;font-size:40px;line-height:125%;font-family:sans-serif;letter-spacing:0px;word-spacing:0px;fill:#000000;fill-opacity:0.39215686;stroke:none;stroke-width:0.3748408;stroke-linecap:butt;stroke-linejoin:miter;stroke-miterlimit:4;stroke-dasharray:none;stroke-opacity:1"
           transform="matrix(10.540373,0,0,10.803644,-21923.167,-152.34503)"><flowRegion
             id="flowRegion4320"><rect
               id="rect4322"
               width="200"
               height="300"
               x="2280"
               y="102.00012"
               style="fill:#000000;fill-opacity:0.39215686;stroke-width:0.3748408;stroke-miterlimit:4;stroke-dasharray:none" /></flowRegion><flowPara
             id="flowPara4324">5</flowPara></flowRoot>        <flowRoot
           xml:space="preserve"
           id="flowRoot4326"
           style="font-style:normal;font-weight:normal;font-size:40px;line-height:125%;font-family:sans-serif;letter-spacing:0px;word-spacing:0px;fill:#000000;fill-opacity:0.39215686;stroke:none;stroke-width:0.39478275;stroke-linecap:butt;stroke-linejoin:miter;stroke-miterlimit:4;stroke-dasharray:none;stroke-opacity:1"
           transform="matrix(9.6551204,0,0,10.632759,-22624.304,-340.6602)"><flowRegion
             id="flowRegion4328"><rect
               id="rect4330"
               width="200"
               height="300"
               x="2600"
               y="122.00012"
               style="fill:#000000;fill-opacity:0.39215686;stroke-width:0.39478275;stroke-miterlimit:4;stroke-dasharray:none" /></flowRegion><flowPara
             id="flowPara4332">6</flowPara></flowRoot>        <flowRoot
           xml:space="preserve"
           id="flowRoot4334"
           style="font-style:normal;font-weight:normal;font-size:40px;line-height:125%;font-family:sans-serif;letter-spacing:0px;word-spacing:0px;fill:#000000;fill-opacity:0.39215686;stroke:none;stroke-width:0.37322617;stroke-linecap:butt;stroke-linejoin:miter;stroke-miterlimit:4;stroke-dasharray:none;stroke-opacity:1"
           transform="matrix(10.44762,0,0,10.994069,-27675.724,-170.95075)"><flowRegion
             id="flowRegion4336"><rect
               id="rect4338"
               width="280"
               height="340"
               x="2920"
               y="102.00012"
               style="fill:#000000;fill-opacity:0.39215686;stroke-width:0.37322617;stroke-miterlimit:4;stroke-dasharray:none" /></flowRegion><flowPara
             id="flowPara4340">7</flowPara></flowRoot>        <flowRoot
           xml:space="preserve"
           id="flowRoot4350"
           style="font-style:normal;font-weight:normal;font-size:40px;line-height:125%;font-family:sans-serif;letter-spacing:0px;word-spacing:0px;fill:#000000;fill-opacity:0.39215686;stroke:none;stroke-width:0.39349419;stroke-linecap:butt;stroke-linejoin:miter;stroke-miterlimit:4;stroke-dasharray:none;stroke-opacity:1"
           transform="matrix(9.8055495,0,0,10.538321,-279.33603,-4841.714)"><flowRegion
             id="flowRegion4352"><rect
               id="rect4354"
               width="240"
               height="360"
               x="60"
               y="602.00012"
               style="fill:#000000;fill-opacity:0.39215686;stroke-width:0.39349419;stroke-miterlimit:4;stroke-dasharray:none" /></flowRegion><flowPara
             id="flowPara4356">9</flowPara></flowRoot>        <flowRoot
           xml:space="preserve"
           id="flowRoot4358"
           style="font-style:normal;font-weight:normal;font-size:40px;line-height:125%;font-family:sans-serif;letter-spacing:0px;word-spacing:0px;fill:#000000;fill-opacity:0.39215686;stroke:none;stroke-width:0.526016;stroke-linecap:butt;stroke-linejoin:miter;stroke-miterlimit:4;stroke-dasharray:none;stroke-opacity:0.39215686"
           transform="matrix(5.4871988,0,0,10.538321,-1634.017,-4841.7141)"><flowRegion
             id="flowRegion4360"><rect
               id="rect4362"
               width="260"
               height="400"
               x="420"
               y="602.00012"
               style="fill:#000000;fill-opacity:0.39215686;stroke:none;stroke-width:0.526016;stroke-miterlimit:4;stroke-dasharray:none;stroke-opacity:0.39215686" /></flowRegion><flowPara
             id="flowPara4364">1</flowPara></flowRoot>        <flowRoot
           xml:space="preserve"
           id="flowRoot4366"
           style="font-style:normal;font-weight:normal;font-size:40px;line-height:125%;font-family:sans-serif;letter-spacing:0px;word-spacing:0px;fill:#000000;fill-opacity:0.39215686;stroke:none;stroke-width:0.39014015;stroke-linecap:butt;stroke-linejoin:miter;stroke-miterlimit:4;stroke-dasharray:none;stroke-opacity:1"
           transform="matrix(12.208533,0,0,8.6102403,-8157.2412,-3668.2473)"><flowRegion
             id="flowRegion4368"><rect
               id="rect4370"
               width="240"
               height="440"
               x="760"
               y="602.00012"
               style="fill:#000000;fill-opacity:0.39215686;stroke-width:0.39014015;stroke-miterlimit:4;stroke-dasharray:none" /></flowRegion><flowPara
             id="flowPara4372">J</flowPara></flowRoot>        <flowRoot
           xml:space="preserve"
           id="flowRoot4374"
           style="font-style:normal;font-weight:normal;font-size:40px;line-height:125%;font-family:sans-serif;letter-spacing:0px;word-spacing:0px;fill:#000000;fill-opacity:0.39215686;stroke:none;stroke-width:0.49079525;stroke-linecap:butt;stroke-linejoin:miter;stroke-miterlimit:4;stroke-dasharray:none;stroke-opacity:1"
           transform="matrix(7.3510455,0,0,9.0358756,-6833.1102,-3921.9433)"><flowRegion
             id="flowRegion4376"><rect
               id="rect4378"
               width="240"
               height="340"
               x="1120"
               y="602.00012"
               style="fill:#000000;fill-opacity:0.39215686;stroke-width:0.49079525;stroke-miterlimit:4;stroke-dasharray:none" /></flowRegion><flowPara
             id="flowPara4380">Q</flowPara></flowRoot>        <flowRoot
           xml:space="preserve"
           id="flowRoot4390"
           style="font-style:normal;font-weight:normal;font-size:40px;line-height:125%;font-family:sans-serif;letter-spacing:0px;word-spacing:0px;fill:#000000;fill-opacity:0.39215686;stroke:none;stroke-width:0.41192874;stroke-linecap:butt;stroke-linejoin:miter;stroke-miterlimit:4;stroke-dasharray:none;stroke-opacity:1"
           transform="matrix(8.653769,0,0,10.896087,-14346.874,-5286.7301)"><flowRegion
             id="flowRegion4392"><rect
               id="rect4394"
               width="240"
               height="360"
               x="1860"
               y="622.00012"
               style="fill:#000000;fill-opacity:0.39215686;stroke-width:0.41192874;stroke-miterlimit:4;stroke-dasharray:none" /></flowRegion><flowPara
             id="flowPara4396">K</flowPara></flowRoot>        <flowRoot
           xml:space="preserve"
           id="flowRoot4398"
           style="font-style:normal;font-weight:normal;font-size:40px;line-height:125%;font-family:sans-serif;letter-spacing:0px;word-spacing:0px;fill:#000000;fill-opacity:1;stroke:none;stroke-width:1px;stroke-linecap:butt;stroke-linejoin:miter;stroke-opacity:1"
           transform="translate(-110.81731,964.05054)"><flowRegion
             id="flowRegion4400"><rect
               id="rect4402"
               width="480"
               height="1160"
               x="3200"
               y="-157.99988" /></flowRegion><flowPara
             id="flowPara4404" /></flowRoot>        <flowRoot
           xml:space="preserve"
           id="flowRoot4406"
           style="font-style:normal;font-weight:normal;font-size:40px;line-height:125%;font-family:sans-serif;letter-spacing:0px;word-spacing:0px;fill:#000000;fill-opacity:1;stroke:none;stroke-width:1px;stroke-linecap:butt;stroke-linejoin:miter;stroke-opacity:1"
           transform="translate(-110.81731,964.05054)"><flowRegion
             id="flowRegion4408"><rect
               id="rect4410"
               width="320"
               height="360"
               x="3280"
               y="42.000122" /></flowRegion><flowPara
             id="flowPara4412" /></flowRoot>        <text
           xml:space="preserve"
           style="font-style:normal;font-weight:normal;font-size:409.50436401px;line-height:125%;font-family:sans-serif;letter-spacing:0px;word-spacing:0px;fill:#000000;fill-opacity:0.39215686;stroke:none;stroke-width:4;stroke-linecap:butt;stroke-linejoin:miter;stroke-miterlimit:4;stroke-dasharray:none;stroke-opacity:1"
           x="-56.980659"
           y="1851.1442"
           id="text4414"
           sodipodi:linespacing="125%"
           transform="scale(0.96283658,1.0385979)"><tspan
             sodipodi:role="line"
             id="tspan4416"
             x="-56.980659"
             y="1851.1442">8</tspan></text>
        <flowRoot
           xml:space="preserve"
           id="flowRoot4418"
           style="font-style:normal;font-weight:normal;font-size:40px;line-height:125%;font-family:sans-serif;letter-spacing:0px;word-spacing:0px;fill:#000000;fill-opacity:0.39215686;stroke:none;stroke-width:0.56082159;stroke-linecap:butt;stroke-linejoin:miter;stroke-miterlimit:4;stroke-dasharray:none;stroke-opacity:1"
           transform="matrix(4.8272433,0,0,10.53832,-3657.9723,-5687.6356)"><flowRegion
             id="flowRegion4420"><rect
               id="rect4422"
               width="160"
               height="400"
               x="920"
               y="682"
               style="fill:#000000;fill-opacity:0.39215686;stroke:none;stroke-width:0.56082159;stroke-miterlimit:4;stroke-dasharray:none;stroke-opacity:1" /></flowRegion><flowPara
             id="flowPara4424">0</flowPara></flowRoot>        <g
           style="display:block"
           id="svgg"
           transform="matrix(-0.78099993,0,0,0.81364842,2399.8695,1651.3641)">
          <path
             id="path0-1"
             d="m 252,1 c -14.33759,15.613063 -24.99508,27.230421 -34.93691,37.633206 -2.52409,3.13891 -2.55795,3.112931 0.85409,6.282974 31.47043,31.055707 47.27322,46.949031 66.44482,66.58382 -117.32915,1.03914 -159.91117,1.93024 -279.6530487,1.62235 -4.15133049,0.55627 -4.2263785,0.50318 -4.5075477,5.31118 C 0.17387648,127.23788 0.00681058,137.51428 0,144.5 c 0,14.333 0.0289998,24.29654 0.01657016,27.11073 0.03680976,6.66828 0.13663967,6.56589 3.72457624,6.67373 C 72.367993,178.69865 113.40637,178.86537 148.507,179 l 133.84,0.5 -27.674,27.656 c -19.45061,22.1581 -28.85192,33.05924 -37.08892,42.3304 -1.73181,1.91241 -1.82681,1.85903 0.7651,4.7654 11.19258,10.9322 21.33109,20.14906 31.13548,30.50105 7.32648,6.51441 7.36612,6.79352 14.78353,0.237 C 370,176.40058 370,176.7424 398.64702,145.74474 399.97294,143.97294 400,144.02706 396.74252,140.53121 358.56926,103.55143 301.16902,42.214151 257.5,0 254.475,0 252,0.45 252,1"
             inkscape:connector-curvature="0"
             style="fill:#000000;fill-rule:evenodd;stroke:none"
             sodipodi:nodetypes="cccccccccccccccccccc" />
        </g>
        <g
           style="display:block;stroke-width:2;stroke-miterlimit:4;stroke-dasharray:none"
           id="svgg-8"
           transform="matrix(0.81103838,0,0,0.81364842,2441.8696,1651.3646)">
          <path
             id="path0-1-7"
             d="m 252,1 c -14.33759,15.613063 -24.99508,27.230421 -34.93691,37.633206 -2.52409,3.13891 -2.55795,3.112931 0.85409,6.282974 31.47043,31.055707 47.27322,46.949031 66.44482,66.58382 -117.32915,1.03914 -159.91117,1.93024 -279.6530487,1.62235 -4.15133049,0.55627 -4.2263785,0.50318 -4.5075477,5.31118 C 0.17387648,127.23788 0.00681058,137.51428 0,144.5 c 0,14.333 0.0289998,24.29654 0.01657016,27.11073 0.03680976,6.66828 0.13663967,6.56589 3.72457624,6.67373 C 72.367993,178.69865 113.40637,178.86537 148.507,179 l 133.84,0.5 -27.674,27.656 c -19.45061,22.1581 -28.85192,33.05924 -37.08892,42.3304 -1.73181,1.91241 -1.82681,1.85903 0.7651,4.7654 11.19258,10.9322 21.33109,20.14906 31.13548,30.50105 7.32648,6.51441 7.36612,6.79352 14.78353,0.237 C 370,176.40058 370,176.7424 398.64702,145.74474 399.97294,143.97294 400,144.02706 396.74252,140.53121 358.56926,103.55143 301.16902,42.214151 257.5,0 254.475,0 252,0.45 252,1"
             inkscape:connector-curvature="0"
             style="fill:#000000;fill-rule:evenodd;stroke:none"
             sodipodi:nodetypes="cccccccccccccccccccc" />
        </g>
      </g>
    </g>
  </g>
</svg>
